<svg width="24" height="24" viewBox="0 0 24 24" fill="none" xmlns="http://www.w3.org/2000/svg">
<g clip-path="url(#clip0_221_140)">
<path d="M12.008 12.555C13.922 12.555 15.461 10.875 15.461 8.805C15.461 6.773 13.914 5.141 12.008 5.141C10.102 5.141 8.53899 6.789 8.54699 8.812C8.55499 10.882 10.086 12.555 12.007 12.555H12.008ZM12.008 11.047C10.977 11.047 10.109 10.078 10.109 8.812C10.102 7.602 10.977 6.648 12.008 6.648C13.039 6.648 13.898 7.586 13.898 8.805C13.898 10.063 13.039 11.047 12.008 11.047ZM16.844 19.844C18.227 19.844 18.906 19.391 18.906 18.422C18.906 16.195 16.148 13.414 12 13.414C7.85199 13.414 5.09399 16.195 5.09399 18.422C5.09399 19.391 5.77399 19.844 7.16399 19.844H16.844ZM16.984 18.336H7.01599C6.84399 18.336 6.78099 18.281 6.78099 18.148C6.78099 17.023 8.67099 14.922 12 14.922C15.328 14.922 17.219 17.023 17.219 18.148C17.219 18.281 17.156 18.336 16.984 18.336Z" fill="#E0E0FF"/>
</g>
<defs>
<clipPath id="clip0_221_140">
<rect width="24" height="24" fill="white"/>
</clipPath>
</defs>
</svg>
