<svg width="24" height="24" viewBox="0 0 24 24" fill="none" xmlns="http://www.w3.org/2000/svg">
<g clip-path="url(#clip0_221_95)">
<g opacity="0.8">
<path d="M19.7 15.11L21.668 12.367C22.058 11.836 21.878 11.336 21.238 11.336H20.121C19.637 7.391 16.191 4.196 12.004 4.196C9.78504 4.196 7.76204 5.141 6.34004 6.602C5.89504 7.008 5.89504 7.57 6.21504 7.906C6.54304 8.266 7.07504 8.328 7.56604 7.906C8.68404 6.758 10.262 6.031 12.004 6.031C15.223 6.031 17.801 8.375 18.27 11.336H17.05C16.426 11.336 16.238 11.836 16.621 12.367L18.598 15.109C18.902 15.539 19.387 15.539 19.699 15.109L19.7 15.11ZM12.004 20.531C14.238 20.531 16.262 19.586 17.684 18.125C18.121 17.711 18.121 17.148 17.809 16.812C17.473 16.453 16.949 16.398 16.449 16.82C15.339 17.969 13.762 18.695 12.004 18.695C8.79304 18.695 6.21404 16.359 5.74604 13.391H6.95004C7.58304 13.391 7.76304 12.891 7.38004 12.367L5.41004 9.617C5.09804 9.187 4.61304 9.187 4.30904 9.617L2.33204 12.36C1.94904 12.892 2.12204 13.392 2.76204 13.392H3.89504C4.37904 17.337 7.82504 20.531 12.004 20.531Z" fill="#141029"/>
</g>
</g>
<defs>
<clipPath id="clip0_221_95">
<rect width="24" height="24" fill="white"/>
</clipPath>
</defs>
</svg>
