<svg width="24" height="24" viewBox="0 0 24 24" fill="none" xmlns="http://www.w3.org/2000/svg">
<g clip-path="url(#clip0_220_153)">
<path d="M12.0001 13.883C12.3521 13.883 12.6801 13.75 13.1171 13.5L19.1571 10C19.8441 9.594 20.1721 9.234 20.1721 8.68C20.1721 8.117 19.8441 7.758 19.1561 7.352L13.1171 3.852C12.6801 3.602 12.3521 3.469 12.0001 3.469C11.6481 3.469 11.3201 3.602 10.8751 3.852L4.84407 7.352C4.15607 7.758 3.82807 8.117 3.82807 8.68C3.82807 9.234 4.15607 9.594 4.84407 10L10.8751 13.5C11.3201 13.75 11.6481 13.883 12.0001 13.883ZM12.0001 12C11.9061 12 11.8201 11.969 11.7101 11.906L6.14007 8.75C6.11007 8.734 6.08607 8.71 6.08607 8.68C6.08607 8.64 6.10907 8.617 6.14107 8.602L11.7111 5.445C11.8211 5.383 11.9061 5.352 12.0001 5.352C12.0941 5.352 12.1801 5.382 12.2901 5.445L17.8601 8.602C17.8901 8.617 17.9061 8.641 17.9061 8.68C17.9061 8.71 17.8911 8.734 17.8591 8.75L12.2891 11.906C12.1791 11.969 12.0941 12 12.0001 12ZM12.0001 17.773C12.3281 17.773 12.6171 17.625 13.0231 17.383L19.4691 13.602C19.9291 13.328 20.1791 12.984 20.1791 12.555C20.1791 12.125 19.9221 11.789 19.6021 11.585L12.5781 15.665C12.3521 15.797 12.1721 15.883 12.0001 15.883C11.8201 15.883 11.6481 15.797 11.4141 15.664L4.39807 11.586C4.07807 11.789 3.82007 12.125 3.82007 12.555C3.82007 12.985 4.07807 13.335 4.53107 13.602L10.9771 17.382C11.3831 17.625 11.6721 17.773 12.0001 17.773ZM12.0001 21.469C12.3281 21.469 12.6171 21.32 13.0231 21.079L19.4691 17.297C19.9221 17.031 20.1791 16.68 20.1791 16.242C20.1791 15.82 19.9221 15.484 19.6021 15.282L12.5781 19.359C12.3521 19.492 12.1721 19.579 12.0001 19.579C11.8201 19.579 11.6481 19.492 11.4141 19.359L4.39807 15.281C4.07807 15.484 3.82007 15.821 3.82007 16.242C3.82007 16.68 4.07807 17.032 4.53107 17.297L10.9771 21.078C11.3831 21.32 11.6721 21.469 12.0001 21.469Z" fill="#E0E0FF"/>
</g>
<defs>
<clipPath id="clip0_220_153">
<rect width="24" height="24" fill="white"/>
</clipPath>
</defs>
</svg>
